<svg width="20" height="20" viewBox="0 0 20 20" fill="none" xmlns="http://www.w3.org/2000/svg">
<path fill-rule="evenodd" clip-rule="evenodd" d="M8.81928 0C3.95638 0 0 3.94556 0 8.79522C0 13.6449 3.95642 17.5904 8.81928 17.5904C10.987 17.5904 12.9746 16.8064 14.5119 15.5078L18.7673 19.7415C18.9085 19.8818 19.0926 19.9519 19.2772 19.9519C19.4629 19.9519 19.6485 19.8808 19.7897 19.7389C20.0711 19.4557 20.0699 18.9981 19.787 18.7165L15.5369 14.4879C16.8471 12.9527 17.6386 10.9644 17.6386 8.79522C17.6386 3.94556 13.6822 0 8.81928 0ZM14.0782 13.9418C15.3854 12.6149 16.1928 10.7972 16.1928 8.79518C16.1928 4.74263 12.8851 1.44575 8.81928 1.44575C4.75349 1.44575 1.44578 4.74263 1.44578 8.79518C1.44578 12.8475 4.75349 16.1446 8.81928 16.1446C10.8208 16.1446 12.6386 15.3456 13.9685 14.0508C13.9838 14.032 14.0002 14.0138 14.0176 13.9962C14.037 13.9767 14.0572 13.9586 14.0782 13.9418Z" fill="#60ABFF"/>
</svg>
